<?xml version="1.0" encoding="utf-8"?>
<!-- Generator: Adobe Illustrator 27.5.0, SVG Export Plug-In . SVG Version: 6.00 Build 0)  -->
<svg version="1.1" id="Calque_1" xmlns="http://www.w3.org/2000/svg" xmlns:xlink="http://www.w3.org/1999/xlink" x="0px" y="0px"
	 viewBox="0 0 34 44" style="enable-background:new 0 0 34 44;" xml:space="preserve">
<style type="text/css">
	.st0{fill:#FFFFFF;}
	.st1{fill:#FFFFFF;filter:url(#Adobe_OpacityMaskFilter);}
	.st2{mask:url(#path-1-outside-1_503_36_00000092446060575166782160000000647306275794704013_);fill:#FFFFFF;}
</style>
<path class="st0" d="M33.5,13.8c0-0.1-0.1-0.1-0.1-0.1c-0.1,0-0.1-0.1-0.2-0.1c-1.4-0.4-3.1-0.2-4.6,0.7c-0.9,0.5-1.7,1.2-2.3,2
	l0-0.1c-0.5-2-0.5-2.8,0-4.8l0.3-1.5c0-0.1,0-0.1,0-0.2c0-0.1,0-0.1-0.1-0.2c0-0.1-0.1-0.1-0.2-0.1c-0.1,0-0.1,0-0.2,0H20
	c-0.1,0-0.1,0-0.2,0c-0.1,0-0.1,0.1-0.2,0.1c0,0.1-0.1,0.1-0.1,0.2c0,0.1,0,0.1,0,0.2l0.3,1.5c0.5,2,0.5,2.8,0,4.8l-0.3,1.5
	c0,0,0,0,0,0c0,0,0,0,0,0c0,0,0,0,0,0c0,0,0,0,0,0c0,0,0,0,0,0c0,0,0,0,0,0c0,0,0,0,0,0c0,0,0,0,0,0l0.3,1.5c0.5,2,0.5,2.8,0,4.8
	l-0.3,1.1h-4.4L15,24.3c-0.5-2-0.5-2.8,0-4.8l0.3-1.5c0,0,0,0,0,0c0,0,0,0,0,0c0,0,0,0,0,0c0,0,0,0,0,0c0,0,0,0,0,0c0,0,0,0,0,0
	c0,0,0,0,0,0c0,0,0,0,0,0L15,16.2c-0.5-2-0.5-2.8,0-4.8l0.3-1.5c0,0,0,0,0,0c0,0,0,0,0,0c0,0,0,0,0,0c0,0,0,0,0,0c0,0,0,0,0,0
	s0,0,0,0c0,0,0,0,0,0c0,0,0,0,0,0L15,8.1c-0.5-2-0.5-2.8,0-4.8l0.3-1.5c0-0.1,0-0.1,0-0.2c0-0.1,0-0.1-0.1-0.2
	c0-0.1-0.1-0.1-0.2-0.1c-0.1,0-0.1,0-0.2,0H8.7c-0.1,0-0.1,0-0.2,0c-0.1,0-0.1,0.1-0.2,0.1c0,0.1-0.1,0.1-0.1,0.2c0,0.1,0,0.1,0,0.2
	l0.3,1.5c0.5,2,0.5,2.8,0,4.8l0,0.1C7.9,7.3,7.1,6.5,6.2,6C4.7,5.2,3,5,1.6,5.4c-0.1,0-0.1,0-0.2,0.1c-0.1,0-0.1,0.1-0.1,0.1
	c0,0.1-0.1,0.1-0.1,0.2c0,0.1,0,0.1,0,0.2c0.4,1.4,1.5,2.7,3,3.5c1,0.5,2.1,0.8,3.2,0.9c0.3,0,0.6,0,0.9-0.1l0.2,1.1
	c0.5,2,0.5,2.8,0,4.8l-0.3,1.5c0,0,0,0,0,0c0,0,0,0,0,0c0,0,0,0,0,0c0,0,0,0,0,0c0,0,0,0,0,0c0,0,0,0,0,0c0,0,0,0,0,0c0,0,0,0,0,0
	l0.3,1.5c0.5,2,0.5,2.8,0,4.8l-0.3,1.4c-2.6,1.8-4,4.2-4,6.8c0,2.7,1.5,5.2,4.3,7C8.8,39.6,8.9,39.8,9,40c0.1,0.2,0,0.5-0.1,0.7
	L8,42.4c0,0.1-0.1,0.2-0.1,0.2c0,0.1,0,0.2,0.1,0.2c0,0.1,0.1,0.1,0.2,0.2c0.1,0,0.2,0.1,0.2,0.1h18.1c0.1,0,0.2,0,0.2-0.1
	c0.1,0,0.1-0.1,0.2-0.2s0.1-0.2,0.1-0.2c0-0.1,0-0.2-0.1-0.2L26,40.7c-0.1-0.2-0.1-0.4-0.1-0.7c0.1-0.2,0.2-0.4,0.4-0.5
	c2.8-1.8,4.3-4.3,4.3-7c0-2.6-1.4-5-4.1-6.8l-0.3-1.3c-0.5-2-0.5-2.8,0-4.8l0.2-1c0.3,0,0.5,0.1,0.8,0.1c1.1,0,2.2-0.3,3.2-0.9
	c1.5-0.8,2.6-2.1,3-3.5c0-0.1,0-0.1,0-0.2C33.5,14,33.5,13.9,33.5,13.8z M20.9,11.2l-0.2-0.9h4.9l-0.2,0.9c-0.5,2.2-0.5,3.1,0,5.3
	l0.2,0.9h-4.9l0.2-0.9C21.3,14.3,21.3,13.3,20.9,11.2z M20.9,19.3l-0.2-0.9h4.9l-0.2,0.9c-0.5,2.2-0.5,3.1,0,5.3l0.2,0.9h-4.9
	l0.2-0.9C21.3,22.4,21.3,21.4,20.9,19.3z M9.5,19.3l-0.2-0.9h4.9L14,19.3c-0.5,2.2-0.5,3.1,0,5.3l0.2,0.9H9.3l0.2-0.9
	C10,22.4,10,21.4,9.5,19.3z M9.5,11.2l-0.2-0.9h4.9L14,11.2c-0.5,2.2-0.5,3.1,0,5.3l0.2,0.9H9.3l0.2-0.9C10,14.3,10,13.3,9.5,11.2z
	 M9.5,3L9.3,2.1h4.9L14,3c-0.5,2.2-0.5,3.1,0,5.3l0.2,0.9H9.3l0.2-0.9C10,6.1,10,5.2,9.5,3z M4.7,8.6C3.7,8,2.8,7.2,2.4,6.2
	C3.4,6,4.6,6.3,5.7,6.9C6.8,7.5,7.6,8.3,8,9.3C7,9.5,5.8,9.2,4.7,8.6z M29.7,32.5c0,2.3-1.4,4.5-3.9,6.2c-0.4,0.3-0.7,0.7-0.8,1.1
	c-0.1,0.5-0.1,1,0.2,1.4l0.5,1H9.3l0.5-1c0.2-0.4,0.3-0.9,0.2-1.4c-0.1-0.5-0.4-0.9-0.8-1.1c-2.5-1.6-3.9-3.8-3.9-6.2
	c0-2.3,1.3-4.4,3.6-6h17.2C28.4,28.1,29.7,30.2,29.7,32.5z M30,16.9c-1.1,0.6-2.3,0.8-3.3,0.7c0.4-1,1.3-1.8,2.3-2.4
	c1.1-0.6,2.3-0.8,3.3-0.7C31.9,15.4,31.1,16.3,30,16.9z"/>
<defs>
	<filter id="Adobe_OpacityMaskFilter" filterUnits="userSpaceOnUse" x="1.2" y="1.1" width="32.3" height="42">
		<feColorMatrix  type="matrix" values="1 0 0 0 0  0 1 0 0 0  0 0 1 0 0  0 0 0 1 0"/>
	</filter>
</defs>
<mask maskUnits="userSpaceOnUse" x="1.2" y="1.1" width="32.3" height="42" id="path-1-outside-1_503_36_00000092446060575166782160000000647306275794704013_">
	<rect x="0.2" y="0.1" class="st1" width="34" height="44"/>
	<path d="M33.5,13.8c0-0.1-0.1-0.1-0.1-0.1c-0.1,0-0.1-0.1-0.2-0.1c-1.4-0.4-3.1-0.2-4.6,0.7c-0.9,0.5-1.7,1.2-2.3,2l0-0.1
		c-0.5-2-0.5-2.8,0-4.8l0.3-1.5c0-0.1,0-0.1,0-0.2c0-0.1,0-0.1-0.1-0.2c0-0.1-0.1-0.1-0.2-0.1c-0.1,0-0.1,0-0.2,0H20
		c-0.1,0-0.1,0-0.2,0c-0.1,0-0.1,0.1-0.2,0.1c0,0.1-0.1,0.1-0.1,0.2c0,0.1,0,0.1,0,0.2l0.3,1.5c0.5,2,0.5,2.8,0,4.8l-0.3,1.5
		c0,0,0,0,0,0c0,0,0,0,0,0c0,0,0,0,0,0c0,0,0,0,0,0c0,0,0,0,0,0c0,0,0,0,0,0c0,0,0,0,0,0c0,0,0,0,0,0l0.3,1.5c0.5,2,0.5,2.8,0,4.8
		l-0.3,1.1h-4.4L15,24.3c-0.5-2-0.5-2.8,0-4.8l0.3-1.5c0,0,0,0,0,0c0,0,0,0,0,0c0,0,0,0,0,0c0,0,0,0,0,0c0,0,0,0,0,0c0,0,0,0,0,0
		c0,0,0,0,0,0c0,0,0,0,0,0L15,16.2c-0.5-2-0.5-2.8,0-4.8l0.3-1.5c0,0,0,0,0,0c0,0,0,0,0,0c0,0,0,0,0,0c0,0,0,0,0,0c0,0,0,0,0,0
		s0,0,0,0c0,0,0,0,0,0c0,0,0,0,0,0L15,8.1c-0.5-2-0.5-2.8,0-4.8l0.3-1.5c0-0.1,0-0.1,0-0.2c0-0.1,0-0.1-0.1-0.2
		c0-0.1-0.1-0.1-0.2-0.1c-0.1,0-0.1,0-0.2,0H8.7c-0.1,0-0.1,0-0.2,0c-0.1,0-0.1,0.1-0.2,0.1c0,0.1-0.1,0.1-0.1,0.2
		c0,0.1,0,0.1,0,0.2l0.3,1.5c0.5,2,0.5,2.8,0,4.8l0,0.1C7.9,7.3,7.1,6.5,6.2,6C4.7,5.2,3,5,1.6,5.4c-0.1,0-0.1,0-0.2,0.1
		c-0.1,0-0.1,0.1-0.1,0.1c0,0.1-0.1,0.1-0.1,0.2c0,0.1,0,0.1,0,0.2c0.4,1.4,1.5,2.7,3,3.5c1,0.5,2.1,0.8,3.2,0.9
		c0.3,0,0.6,0,0.9-0.1l0.2,1.1c0.5,2,0.5,2.8,0,4.8l-0.3,1.5c0,0,0,0,0,0c0,0,0,0,0,0c0,0,0,0,0,0c0,0,0,0,0,0c0,0,0,0,0,0
		c0,0,0,0,0,0c0,0,0,0,0,0c0,0,0,0,0,0l0.3,1.5c0.5,2,0.5,2.8,0,4.8l-0.3,1.4c-2.6,1.8-4,4.2-4,6.8c0,2.7,1.5,5.2,4.3,7
		C8.8,39.6,8.9,39.8,9,40c0.1,0.2,0,0.5-0.1,0.7L8,42.4c0,0.1-0.1,0.2-0.1,0.2c0,0.1,0,0.2,0.1,0.2c0,0.1,0.1,0.1,0.2,0.2
		c0.1,0,0.2,0.1,0.2,0.1h18.1c0.1,0,0.2,0,0.2-0.1c0.1,0,0.1-0.1,0.2-0.2s0.1-0.2,0.1-0.2c0-0.1,0-0.2-0.1-0.2L26,40.7
		c-0.1-0.2-0.1-0.4-0.1-0.7c0.1-0.2,0.2-0.4,0.4-0.5c2.8-1.8,4.3-4.3,4.3-7c0-2.6-1.4-5-4.1-6.8l-0.3-1.3c-0.5-2-0.5-2.8,0-4.8
		l0.2-1c0.3,0,0.5,0.1,0.8,0.1c1.1,0,2.2-0.3,3.2-0.9c1.5-0.8,2.6-2.1,3-3.5c0-0.1,0-0.1,0-0.2C33.5,14,33.5,13.9,33.5,13.8z
		 M20.9,11.2l-0.2-0.9h4.9l-0.2,0.9c-0.5,2.2-0.5,3.1,0,5.3l0.2,0.9h-4.9l0.2-0.9C21.3,14.3,21.3,13.3,20.9,11.2z M20.9,19.3
		l-0.2-0.9h4.9l-0.2,0.9c-0.5,2.2-0.5,3.1,0,5.3l0.2,0.9h-4.9l0.2-0.9C21.3,22.4,21.3,21.4,20.9,19.3z M9.5,19.3l-0.2-0.9h4.9
		L14,19.3c-0.5,2.2-0.5,3.1,0,5.3l0.2,0.9H9.3l0.2-0.9C10,22.4,10,21.4,9.5,19.3z M9.5,11.2l-0.2-0.9h4.9L14,11.2
		c-0.5,2.2-0.5,3.1,0,5.3l0.2,0.9H9.3l0.2-0.9C10,14.3,10,13.3,9.5,11.2z M9.5,3L9.3,2.1h4.9L14,3c-0.5,2.2-0.5,3.1,0,5.3l0.2,0.9
		H9.3l0.2-0.9C10,6.1,10,5.2,9.5,3z M4.7,8.6C3.7,8,2.8,7.2,2.4,6.2C3.4,6,4.6,6.3,5.7,6.9C6.8,7.5,7.6,8.3,8,9.3
		C7,9.5,5.8,9.2,4.7,8.6z M29.7,32.5c0,2.3-1.4,4.5-3.9,6.2c-0.4,0.3-0.7,0.7-0.8,1.1c-0.1,0.5-0.1,1,0.2,1.4l0.5,1H9.3l0.5-1
		c0.2-0.4,0.3-0.9,0.2-1.4c-0.1-0.5-0.4-0.9-0.8-1.1c-2.5-1.6-3.9-3.8-3.9-6.2c0-2.3,1.3-4.4,3.6-6h17.2
		C28.4,28.1,29.7,30.2,29.7,32.5z M30,16.9c-1.1,0.6-2.3,0.8-3.3,0.7c0.4-1,1.3-1.8,2.3-2.4c1.1-0.6,2.3-0.8,3.3-0.7
		C31.9,15.4,31.1,16.3,30,16.9z"/>
</mask>
<path class="st2" d="M33.5,13.8c0-0.1-0.1-0.1-0.1-0.1c-0.1,0-0.1-0.1-0.2-0.1c-1.4-0.4-3.1-0.2-4.6,0.7c-0.9,0.5-1.7,1.2-2.3,2
	l0-0.1c-0.5-2-0.5-2.8,0-4.8l0.3-1.5c0-0.1,0-0.1,0-0.2c0-0.1,0-0.1-0.1-0.2c0-0.1-0.1-0.1-0.2-0.1c-0.1,0-0.1,0-0.2,0H20
	c-0.1,0-0.1,0-0.2,0c-0.1,0-0.1,0.1-0.2,0.1c0,0.1-0.1,0.1-0.1,0.2c0,0.1,0,0.1,0,0.2l0.3,1.5c0.5,2,0.5,2.8,0,4.8l-0.3,1.5
	c0,0,0,0,0,0c0,0,0,0,0,0c0,0,0,0,0,0c0,0,0,0,0,0c0,0,0,0,0,0c0,0,0,0,0,0c0,0,0,0,0,0c0,0,0,0,0,0l0.3,1.5c0.5,2,0.5,2.8,0,4.8
	l-0.3,1.1h-4.4L15,24.3c-0.5-2-0.5-2.8,0-4.8l0.3-1.5c0,0,0,0,0,0c0,0,0,0,0,0c0,0,0,0,0,0c0,0,0,0,0,0c0,0,0,0,0,0c0,0,0,0,0,0
	c0,0,0,0,0,0c0,0,0,0,0,0L15,16.2c-0.5-2-0.5-2.8,0-4.8l0.3-1.5c0,0,0,0,0,0c0,0,0,0,0,0c0,0,0,0,0,0c0,0,0,0,0,0c0,0,0,0,0,0
	s0,0,0,0c0,0,0,0,0,0c0,0,0,0,0,0L15,8.1c-0.5-2-0.5-2.8,0-4.8l0.3-1.5c0-0.1,0-0.1,0-0.2c0-0.1,0-0.1-0.1-0.2
	c0-0.1-0.1-0.1-0.2-0.1c-0.1,0-0.1,0-0.2,0H8.7c-0.1,0-0.1,0-0.2,0c-0.1,0-0.1,0.1-0.2,0.1c0,0.1-0.1,0.1-0.1,0.2c0,0.1,0,0.1,0,0.2
	l0.3,1.5c0.5,2,0.5,2.8,0,4.8l0,0.1C7.9,7.3,7.1,6.5,6.2,6C4.7,5.2,3,5,1.6,5.4c-0.1,0-0.1,0-0.2,0.1c-0.1,0-0.1,0.1-0.1,0.1
	c0,0.1-0.1,0.1-0.1,0.2c0,0.1,0,0.1,0,0.2c0.4,1.4,1.5,2.7,3,3.5c1,0.5,2.1,0.8,3.2,0.9c0.3,0,0.6,0,0.9-0.1l0.2,1.1
	c0.5,2,0.5,2.8,0,4.8l-0.3,1.5c0,0,0,0,0,0c0,0,0,0,0,0c0,0,0,0,0,0c0,0,0,0,0,0c0,0,0,0,0,0c0,0,0,0,0,0c0,0,0,0,0,0c0,0,0,0,0,0
	l0.3,1.5c0.5,2,0.5,2.8,0,4.8l-0.3,1.4c-2.6,1.8-4,4.2-4,6.8c0,2.7,1.5,5.2,4.3,7C8.8,39.6,8.9,39.8,9,40c0.1,0.2,0,0.5-0.1,0.7
	L8,42.4c0,0.1-0.1,0.2-0.1,0.2c0,0.1,0,0.2,0.1,0.2c0,0.1,0.1,0.1,0.2,0.2c0.1,0,0.2,0.1,0.2,0.1h18.1c0.1,0,0.2,0,0.2-0.1
	c0.1,0,0.1-0.1,0.2-0.2s0.1-0.2,0.1-0.2c0-0.1,0-0.2-0.1-0.2L26,40.7c-0.1-0.2-0.1-0.4-0.1-0.7c0.1-0.2,0.2-0.4,0.4-0.5
	c2.8-1.8,4.3-4.3,4.3-7c0-2.6-1.4-5-4.1-6.8l-0.3-1.3c-0.5-2-0.5-2.8,0-4.8l0.2-1c0.3,0,0.5,0.1,0.8,0.1c1.1,0,2.2-0.3,3.2-0.9
	c1.5-0.8,2.6-2.1,3-3.5c0-0.1,0-0.1,0-0.2C33.5,14,33.5,13.9,33.5,13.8z M20.9,11.2l-0.2-0.9h4.9l-0.2,0.9c-0.5,2.2-0.5,3.1,0,5.3
	l0.2,0.9h-4.9l0.2-0.9C21.3,14.3,21.3,13.3,20.9,11.2z M20.9,19.3l-0.2-0.9h4.9l-0.2,0.9c-0.5,2.2-0.5,3.1,0,5.3l0.2,0.9h-4.9
	l0.2-0.9C21.3,22.4,21.3,21.4,20.9,19.3z M9.5,19.3l-0.2-0.9h4.9L14,19.3c-0.5,2.2-0.5,3.1,0,5.3l0.2,0.9H9.3l0.2-0.9
	C10,22.4,10,21.4,9.5,19.3z M9.5,11.2l-0.2-0.9h4.9L14,11.2c-0.5,2.2-0.5,3.1,0,5.3l0.2,0.9H9.3l0.2-0.9C10,14.3,10,13.3,9.5,11.2z
	 M9.5,3L9.3,2.1h4.9L14,3c-0.5,2.2-0.5,3.1,0,5.3l0.2,0.9H9.3l0.2-0.9C10,6.1,10,5.2,9.5,3z M4.7,8.6C3.7,8,2.8,7.2,2.4,6.2
	C3.4,6,4.6,6.3,5.7,6.9C6.8,7.5,7.6,8.3,8,9.3C7,9.5,5.8,9.2,4.7,8.6z M29.7,32.5c0,2.3-1.4,4.5-3.9,6.2c-0.4,0.3-0.7,0.7-0.8,1.1
	c-0.1,0.5-0.1,1,0.2,1.4l0.5,1H9.3l0.5-1c0.2-0.4,0.3-0.9,0.2-1.4c-0.1-0.5-0.4-0.9-0.8-1.1c-2.5-1.6-3.9-3.8-3.9-6.2
	c0-2.3,1.3-4.4,3.6-6h17.2C28.4,28.1,29.7,30.2,29.7,32.5z M30,16.9c-1.1,0.6-2.3,0.8-3.3,0.7c0.4-1,1.3-1.8,2.3-2.4
	c1.1-0.6,2.3-0.8,3.3-0.7C31.9,15.4,31.1,16.3,30,16.9z"/>
<path class="st0" d="M23.4,39.1H11.6c-0.2,0-0.4,0.1-0.5,0.2c-0.1,0.1-0.2,0.3-0.2,0.5c0,0.2,0.1,0.4,0.2,0.5
	c0.1,0.1,0.3,0.2,0.5,0.2h11.8c0.2,0,0.4-0.1,0.5-0.2c0.1-0.1,0.2-0.3,0.2-0.5c0-0.2-0.1-0.4-0.2-0.5C23.7,39.1,23.6,39.1,23.4,39.1
	z"/>
</svg>
