<?xml version="1.0" encoding="utf-8"?>
<!-- Generator: Adobe Illustrator 27.5.0, SVG Export Plug-In . SVG Version: 6.00 Build 0)  -->
<svg version="1.1" id="Calque_1" xmlns="http://www.w3.org/2000/svg" xmlns:xlink="http://www.w3.org/1999/xlink" x="0px" y="0px"
	 viewBox="0 0 29 44" style="enable-background:new 0 0 29 44;" xml:space="preserve">
<style type="text/css">
	.st0{fill:#FFFFFF;}
</style>
<path class="st0" d="M9,5.9L9,5.9L7.8,4.8l0,0C7.7,4.7,7.5,4.6,7.3,4.6C7.1,4.6,7,4.7,6.8,4.8C6.7,4.9,6.6,5.1,6.6,5.3
	c0,0.2,0.1,0.4,0.2,0.5c0,0,0,0,0,0l1.1,1.1C8,7,8.1,7,8.2,7.1c0.1,0,0.2,0.1,0.3,0.1c0.1,0,0.2,0,0.3-0.1C8.8,7,8.9,7,9,6.9
	C9,6.9,9.1,6.8,9.1,6.7c0-0.1,0.1-0.2,0.1-0.3c0-0.1,0-0.2-0.1-0.3C9.1,6.1,9,6,9,5.9z"/>
<path class="st0" d="M20.7,5.9L20.7,5.9l1.1-1.1c0.1-0.1,0.1-0.1,0.2-0.2c0.1,0,0.2-0.1,0.3-0.1s0.2,0,0.3,0.1
	c0.1,0,0.2,0.1,0.2,0.2C22.9,4.9,23,4.9,23,5c0,0.1,0.1,0.2,0.1,0.3c0,0.1,0,0.2-0.1,0.3c0,0.1-0.1,0.2-0.2,0.2l-1.1,1.1
	c0,0,0,0,0,0l0,0l-0.2-0.2c0,0-0.1,0.1-0.2,0.1c-0.1,0-0.1,0-0.2,0L20.7,5.9z M20.7,5.9c-0.1,0.1-0.2,0.2-0.2,0.4c0,0.1,0,0.3,0,0.4
	c0.1,0.1,0.1,0.2,0.3,0.3c0.1,0.1,0.3,0.1,0.4,0.1L20.7,5.9z"/>
<path class="st0" d="M23.9,13.5h2.4c0.2,0,0.4-0.1,0.5-0.2c0.1-0.1,0.2-0.3,0.2-0.5c0-0.2-0.1-0.4-0.2-0.5c-0.1-0.1-0.3-0.2-0.5-0.2
	h-2.4c-0.2,0-0.4,0.1-0.5,0.2c-0.1,0.1-0.2,0.3-0.2,0.5c0,0.2,0.1,0.4,0.2,0.5C23.5,13.4,23.7,13.5,23.9,13.5z"/>
<path class="st0" d="M3.4,13.5h2.4c0.2,0,0.4-0.1,0.5-0.2c0.1-0.1,0.2-0.3,0.2-0.5c0-0.2-0.1-0.4-0.2-0.5c-0.1-0.1-0.3-0.2-0.5-0.2
	H3.4c-0.2,0-0.4,0.1-0.5,0.2c-0.1,0.1-0.2,0.3-0.2,0.5c0,0.2,0.1,0.4,0.2,0.5C3.1,13.4,3.3,13.5,3.4,13.5z"/>
<path class="st0" d="M14.8,4.5c0.2,0,0.4-0.1,0.5-0.2c0.1-0.1,0.2-0.3,0.2-0.5V1.4c0-0.2-0.1-0.4-0.2-0.5c-0.1-0.1-0.3-0.2-0.5-0.2
	c-0.2,0-0.4,0.1-0.5,0.2c-0.1,0.1-0.2,0.3-0.2,0.5v2.4c0,0.2,0.1,0.4,0.2,0.5C14.5,4.4,14.7,4.5,14.8,4.5z"/>
<path class="st0" d="M8.8,12.8L8.8,12.8c0-0.9,0.2-1.9,0.6-2.7c0.4-0.8,1-1.6,1.8-2.1C12,7.4,12.8,7,13.7,6.9s1.9-0.1,2.8,0.1
	c0.9,0.3,1.7,0.7,2.4,1.4c0.7,0.6,1.2,1.4,1.6,2.3c0.3,0.9,0.5,1.8,0.4,2.7c-0.1,0.8-0.3,1.7-0.8,2.4l-4.8-3.6l0,0
	c-0.1-0.1-0.3-0.1-0.4-0.1s-0.3,0-0.4,0.1l0,0l-4.8,3.6C9.1,14.9,8.8,13.9,8.8,12.8z M28.5,22l-7.2-5.4c0.7-1.1,1-2.3,1.1-3.6
	c0-1.3-0.3-2.7-0.9-3.8c-0.6-1.2-1.6-2.2-2.7-2.8c-1.2-0.7-2.5-1-3.8-1c-1.3,0-2.7,0.4-3.8,1C9.9,7.1,8.9,8.1,8.3,9.2
	c-0.6,1.2-1,2.5-0.9,3.8c0,1.3,0.4,2.5,1.1,3.6L1.2,22c-0.1,0.1-0.2,0.2-0.2,0.3c-0.1,0.1-0.1,0.2-0.1,0.3v20.2
	c0,0.2,0.1,0.4,0.2,0.5c0.1,0.1,0.3,0.2,0.5,0.2H28c0.2,0,0.4-0.1,0.5-0.2c0.1-0.1,0.2-0.3,0.2-0.5V22.6c0-0.1,0-0.2-0.1-0.3
	C28.6,22.2,28.5,22.1,28.5,22z M27.3,42.1H2.4V23l12.5-9.3L27.3,23L27.3,42.1z"/>
<path class="st0" d="M9.1,25.8L9.1,25.8H8.6c-0.2,0-0.4,0.1-0.5,0.2c-0.1,0.1-0.2,0.3-0.2,0.5v0.4v0c0,1.7,0.7,3.4,1.9,4.6
	c1.2,1.2,2.7,1.8,4.3,1.9v3.2c-2.1,0.1-4.1,0.8-5.8,1.9l0,0C8.2,38.6,8,38.8,8,39c0,0.2,0,0.4,0.1,0.5c0.1,0.2,0.3,0.3,0.4,0.3
	c0.2,0,0.4,0,0.5-0.1c1.7-1.1,3.7-1.7,5.8-1.7c2,0,4,0.6,5.8,1.7c0.1,0.1,0.2,0.1,0.3,0.1c0.1,0,0.2,0,0.3,0c0.1,0,0.2-0.1,0.3-0.1
	c0.1-0.1,0.1-0.1,0.2-0.2c0.1-0.1,0.1-0.2,0.1-0.3c0-0.1,0-0.2,0-0.3c0-0.1-0.1-0.2-0.1-0.3c-0.1-0.1-0.1-0.1-0.2-0.2
	c-1.7-1.1-3.7-1.8-5.8-1.9v-3.2c1.6-0.1,3.2-0.8,4.3-1.9c1.2-1.2,1.9-2.9,1.9-4.6v0v-0.4c0-0.2-0.1-0.4-0.2-0.5
	c-0.1-0.1-0.3-0.2-0.5-0.2h-0.4h0c-1.3,0-2.5,0.4-3.6,1.1c-0.9,0.6-1.7,1.5-2.2,2.5c-0.5-1-1.3-1.8-2.2-2.5
	C11.6,26.2,10.3,25.8,9.1,25.8z M10.8,30.5c-0.9-0.9-1.4-2.1-1.5-3.3c1.2,0.1,2.4,0.6,3.3,1.5c0.9,0.9,1.4,2.1,1.5,3.3
	C12.9,31.9,11.7,31.4,10.8,30.5z M17,28.7c0.9-0.9,2.1-1.4,3.3-1.5c-0.1,1.2-0.6,2.4-1.5,3.3c-0.9,0.9-2.1,1.4-3.3,1.5
	C15.6,30.8,16.2,29.6,17,28.7z"/>
</svg>
